<svg width="129" height="29" viewBox="0 0 129 29" fill="none" xmlns="http://www.w3.org/2000/svg">
<path d="M14.7064 0.0673527C14.5891 0.09666 14.4133 0.208027 14.3137 0.307672C14.1319 0.5011 0.967137 23.0794 1.00817 23.1263C1.02575 23.138 5.37495 23.1439 10.6854 23.138L20.3275 23.1204L19.6183 21.9364L18.9032 20.7465H12.5025C8.01846 20.7465 6.0959 20.729 6.0959 20.6821C6.0959 20.641 16.2069 2.35332 17.5081 0.0380455C17.5433 -0.0264304 14.9526 -0.00298464 14.7064 0.0673527Z" fill="#273687"/>
<path d="M18.2408 2.20678C17.6957 3.15047 8.85665 18.9119 8.82148 19.0057C8.78045 19.0995 8.8801 19.1053 10.4217 19.1053H12.057L15.3277 13.4197C17.1272 10.2897 18.616 7.73413 18.6394 7.73413C18.6629 7.73413 21.2243 12.2592 24.3309 17.7865L29.9813 27.833L29.9989 25.6233C30.0048 24.24 29.9872 23.308 29.952 23.1263C29.911 22.927 28.1174 19.5567 24.2254 12.3705C21.1129 6.60873 18.5398 1.87854 18.5163 1.85509C18.4929 1.82579 18.3698 1.98405 18.2408 2.20678Z" fill="#273687"/>
<path d="M17.7778 12.564L16.9513 13.9942L18.827 17.2414C19.8586 19.0233 21.2829 21.4441 21.998 22.6163C22.7131 23.7945 23.311 24.7734 23.3168 24.8027C23.3286 24.8261 18.0884 24.8496 11.6701 24.8496H0V25.9632C0 26.7721 0.0234458 27.1355 0.0820603 27.2703C0.181705 27.5165 0.468916 27.7568 0.750265 27.8389C0.902663 27.8858 5.02912 27.8975 14.4895 27.8858L28.0177 27.8682L23.352 19.5449C20.7847 14.9672 18.6687 11.1982 18.6453 11.1748C18.6218 11.1514 18.2291 11.7727 17.7778 12.564Z" fill="#273687"/>
<path d="M42.5256 23H38.571L44.5966 5.54545H49.3523L55.3693 23H51.4148L47.0426 9.53409H46.9062L42.5256 23ZM42.2784 16.1392H51.6193V19.0199H42.2784V16.1392ZM62.7074 23.2557C61.3665 23.2557 60.2131 22.9716 59.2472 22.4034C58.2869 21.8295 57.5483 21.0341 57.0312 20.017C56.5199 19 56.2642 17.8295 56.2642 16.5057C56.2642 15.1648 56.5227 13.9886 57.0398 12.9773C57.5625 11.9602 58.304 11.1676 59.2642 10.5994C60.2244 10.0256 61.3665 9.73864 62.6903 9.73864C63.8324 9.73864 64.8324 9.94602 65.6903 10.3608C66.5483 10.7756 67.2273 11.358 67.7273 12.108C68.2273 12.858 68.5028 13.7386 68.554 14.75H65.1278C65.0313 14.0966 64.7756 13.571 64.3608 13.1733C63.9517 12.7699 63.4148 12.5682 62.75 12.5682C62.1875 12.5682 61.696 12.7216 61.2756 13.0284C60.8608 13.3295 60.5369 13.7699 60.304 14.3494C60.071 14.929 59.9545 15.6307 59.9545 16.4545C59.9545 17.2898 60.0682 18 60.2955 18.5852C60.5284 19.1705 60.8551 19.6165 61.2756 19.9233C61.696 20.2301 62.1875 20.3835 62.75 20.3835C63.1648 20.3835 63.5369 20.2983 63.8665 20.1278C64.2017 19.9574 64.4773 19.7102 64.6932 19.3864C64.9148 19.0568 65.0597 18.6619 65.1278 18.2017H68.554C68.4972 19.2017 68.2244 20.0824 67.7358 20.8438C67.2528 21.5994 66.5852 22.1903 65.733 22.6165C64.8807 23.0426 63.8722 23.2557 62.7074 23.2557ZM76.7933 23.2557C75.4524 23.2557 74.299 22.9716 73.3331 22.4034C72.3729 21.8295 71.6342 21.0341 71.1172 20.017C70.6058 19 70.3501 17.8295 70.3501 16.5057C70.3501 15.1648 70.6087 13.9886 71.1257 12.9773C71.6484 11.9602 72.3899 11.1676 73.3501 10.5994C74.3104 10.0256 75.4524 9.73864 76.7763 9.73864C77.9183 9.73864 78.9183 9.94602 79.7763 10.3608C80.6342 10.7756 81.3132 11.358 81.8132 12.108C82.3132 12.858 82.5888 13.7386 82.6399 14.75H79.2138C79.1172 14.0966 78.8615 13.571 78.4467 13.1733C78.0376 12.7699 77.5007 12.5682 76.8359 12.5682C76.2734 12.5682 75.782 12.7216 75.3615 13.0284C74.9467 13.3295 74.6229 13.7699 74.3899 14.3494C74.157 14.929 74.0405 15.6307 74.0405 16.4545C74.0405 17.2898 74.1541 18 74.3814 18.5852C74.6143 19.1705 74.9411 19.6165 75.3615 19.9233C75.782 20.2301 76.2734 20.3835 76.8359 20.3835C77.2507 20.3835 77.6229 20.2983 77.9524 20.1278C78.2876 19.9574 78.5632 19.7102 78.7791 19.3864C79.0007 19.0568 79.1456 18.6619 79.2138 18.2017H82.6399C82.5831 19.2017 82.3104 20.0824 81.8217 20.8438C81.3388 21.5994 80.6712 22.1903 79.8189 22.6165C78.9666 23.0426 77.9581 23.2557 76.7933 23.2557ZM90.9304 23.2557C89.5838 23.2557 88.4247 22.983 87.4531 22.4375C86.4872 21.8864 85.7429 21.108 85.2202 20.1023C84.6974 19.0909 84.4361 17.8949 84.4361 16.5142C84.4361 15.1676 84.6974 13.9858 85.2202 12.9688C85.7429 11.9517 86.4787 11.1591 87.4276 10.5909C88.3821 10.0227 89.5014 9.73864 90.7855 9.73864C91.6491 9.73864 92.4531 9.87784 93.1974 10.1562C93.9474 10.429 94.6009 10.8409 95.1577 11.392C95.7202 11.9432 96.1577 12.6364 96.4702 13.4716C96.7827 14.3011 96.9389 15.2727 96.9389 16.3864V17.3835H85.8849V15.1335H93.5213C93.5213 14.6108 93.4077 14.1477 93.1804 13.7443C92.9531 13.3409 92.6378 13.0256 92.2344 12.7983C91.8366 12.5653 91.3736 12.4489 90.8452 12.4489C90.294 12.4489 89.8054 12.5767 89.3793 12.8324C88.9588 13.0824 88.6293 13.4205 88.3906 13.8466C88.152 14.267 88.0298 14.7358 88.0241 15.2528V17.392C88.0241 18.0398 88.1435 18.5994 88.3821 19.071C88.6264 19.5426 88.9702 19.9062 89.4134 20.1619C89.8565 20.4176 90.3821 20.5455 90.9901 20.5455C91.3935 20.5455 91.7628 20.4886 92.098 20.375C92.4332 20.2614 92.7202 20.0909 92.9588 19.8636C93.1974 19.6364 93.3793 19.358 93.5043 19.0284L96.8622 19.25C96.6918 20.0568 96.3423 20.7614 95.8139 21.3636C95.2912 21.9602 94.6151 22.4261 93.7855 22.7614C92.9616 23.0909 92.0099 23.2557 90.9304 23.2557ZM102.939 5.54545V23H99.3082V5.54545H102.939ZM109.58 23.2472C108.745 23.2472 108.001 23.1023 107.347 22.8125C106.694 22.517 106.177 22.0824 105.796 21.5085C105.421 20.929 105.234 20.2074 105.234 19.3438C105.234 18.6165 105.367 18.0057 105.634 17.5114C105.901 17.017 106.265 16.6193 106.725 16.3182C107.185 16.017 107.708 15.7898 108.293 15.6364C108.884 15.483 109.504 15.375 110.151 15.3125C110.913 15.233 111.526 15.1591 111.992 15.0909C112.458 15.017 112.796 14.9091 113.006 14.767C113.217 14.625 113.322 14.4148 113.322 14.1364V14.0852C113.322 13.5455 113.151 13.1278 112.81 12.8324C112.475 12.5369 111.998 12.3892 111.379 12.3892C110.725 12.3892 110.205 12.5341 109.819 12.8239C109.433 13.108 109.177 13.4659 109.052 13.8977L105.694 13.625C105.864 12.8295 106.2 12.142 106.7 11.5625C107.2 10.9773 107.844 10.5284 108.634 10.2159C109.43 9.89773 110.35 9.73864 111.396 9.73864C112.123 9.73864 112.819 9.82386 113.484 9.99432C114.154 10.1648 114.748 10.429 115.265 10.7869C115.788 11.1449 116.2 11.6051 116.501 12.1676C116.802 12.7244 116.952 13.392 116.952 14.1705V23H113.509V21.1847H113.407C113.197 21.5938 112.915 21.9545 112.563 22.267C112.211 22.5739 111.788 22.8153 111.293 22.9915C110.799 23.1619 110.228 23.2472 109.58 23.2472ZM110.62 20.7415C111.154 20.7415 111.626 20.6364 112.035 20.4261C112.444 20.2102 112.765 19.9205 112.998 19.5568C113.231 19.1932 113.347 18.7812 113.347 18.321V16.9318C113.234 17.0057 113.077 17.0739 112.879 17.1364C112.685 17.1932 112.467 17.2472 112.222 17.2983C111.978 17.3437 111.734 17.3864 111.489 17.4261C111.245 17.4602 111.023 17.4915 110.825 17.5199C110.398 17.5824 110.026 17.6818 109.708 17.8182C109.39 17.9545 109.143 18.1392 108.967 18.3722C108.79 18.5994 108.702 18.8835 108.702 19.2244C108.702 19.7188 108.881 20.0966 109.239 20.358C109.603 20.6136 110.063 20.7415 110.62 20.7415ZM119.769 23V9.90909H123.289V12.1932H123.425C123.664 11.3807 124.065 10.767 124.627 10.3523C125.19 9.93182 125.837 9.72159 126.57 9.72159C126.752 9.72159 126.948 9.73295 127.158 9.75568C127.369 9.77841 127.553 9.80966 127.712 9.84943V13.071C127.542 13.0199 127.306 12.9744 127.005 12.9347C126.704 12.8949 126.428 12.875 126.178 12.875C125.644 12.875 125.167 12.9915 124.746 13.2244C124.332 13.4517 124.002 13.7699 123.758 14.179C123.519 14.5881 123.4 15.0597 123.4 15.5938V23H119.769Z" fill="white"/>
</svg>
